<?xml version="1.0" standalone="no"?><!DOCTYPE svg PUBLIC "-//W3C//DTD SVG 1.1//EN" "http://www.w3.org/Graphics/SVG/1.1/DTD/svg11.dtd"><svg t="1505897790611" class="icon" style="" viewBox="0 0 1024 1024" version="1.1" xmlns="http://www.w3.org/2000/svg" p-id="2355" xmlns:xlink="http://www.w3.org/1999/xlink" width="200" height="200"><defs><style type="text/css"></style></defs><path d="M975.580772 252.956762l-224.214966-233.631994a61.691146 61.691146 0 0 0-89.685987 0L100.758036 603.436785A3629.015318 3629.015318 0 0 0 29.201431 996.261406a105.124788 105.124788 0 0 0 26.64955 27.738594 1942.470343 1942.470343 0 0 0 222.229062-48.942924l2.178088 2.178088 3.715563-3.907746a1721.650633 1721.650633 0 0 0 130.877478-42.793028l560.985846-584.112018a68.033227 68.033227 0 0 0 0-93.46561zM122.923287 953.916808l-22.421497-23.382418 19.218426-120.179222 108.904412 113.516834-105.765403 30.044806z m246.828646-70.147254l-70.46756 20.051224-166.559689-173.542384 12.812283-80.140835 448.429933-467.263989 44.842993 46.700774-426.328743 443.945633 44.842993 46.764836 426.392804-443.945633 44.842994 46.700775-336.578695 350.480022 44.842993 46.764836 336.578695-350.480023 44.842993 46.700775-448.429932 467.263989z m493.657294-513.964764l-224.214966-233.631994 67.328552-70.083193 224.214966 233.631995-67.26449 70.083192z" p-id="2356"></path></svg>